<?xml version="1.0" encoding="UTF-8"?> <svg xmlns="http://www.w3.org/2000/svg" width="54" height="54" viewBox="0 0 54 54" fill="none"><path d="M26.9999 5.40039C21.1382 5.40039 20.4011 5.42739 18.098 5.52999C15.7949 5.63799 14.2262 5.99979 12.8519 6.53439C11.4097 7.07527 10.1037 7.92597 9.026 9.02649C7.92548 10.1042 7.07478 11.4102 6.5339 12.8524C5.9993 14.224 5.6348 15.7954 5.5295 18.0904C5.4269 20.3989 5.3999 21.1333 5.3999 27.0031C5.3999 32.8675 5.4269 33.6019 5.5295 35.905C5.6375 38.2054 5.9993 39.7741 6.5339 41.1484C7.0874 42.5686 7.8245 43.7728 9.026 44.9743C10.2248 46.1758 11.429 46.9156 12.8492 47.4664C14.2262 48.001 15.7922 48.3655 18.0926 48.4708C20.3984 48.5734 21.1328 48.6004 26.9999 48.6004C32.867 48.6004 33.5987 48.5734 35.9045 48.4708C38.2022 48.3628 39.7763 48.001 41.1506 47.4664C42.5919 46.9252 43.8969 46.0745 44.9738 44.9743C46.1753 43.7728 46.9124 42.5686 47.4659 41.1484C47.9978 39.7741 48.3623 38.2054 48.4703 35.905C48.5729 33.6019 48.5999 32.8675 48.5999 27.0004C48.5999 21.1333 48.5729 20.3989 48.4703 18.0931C48.3623 15.7954 47.9978 14.224 47.4659 12.8524C46.925 11.4102 46.0743 10.1042 44.9738 9.02649C43.8961 7.92597 42.5901 7.07527 41.1479 6.53439C39.7709 5.99979 38.1995 5.63529 35.9018 5.52999C33.596 5.42739 32.8643 5.40039 26.9945 5.40039H26.9999ZM25.064 9.29379H27.0026C32.7698 9.29379 33.4529 9.31269 35.729 9.41799C37.835 9.51249 38.9798 9.86619 39.7412 10.1605C40.7483 10.552 41.4692 11.0218 42.2252 11.7778C42.9812 12.5338 43.4483 13.252 43.8398 14.2618C44.1368 15.0205 44.4878 16.1653 44.5823 18.2713C44.6876 20.5474 44.7092 21.2305 44.7092 26.995C44.7092 32.7595 44.6876 33.4453 44.5823 35.7214C44.4878 37.8274 44.1341 38.9695 43.8398 39.7309C43.4911 40.6675 42.9387 41.515 42.2225 42.2122C41.4665 42.9682 40.7483 43.4353 39.7385 43.8268C38.9825 44.1238 37.8377 44.4748 35.729 44.572C33.4529 44.6746 32.7698 44.6989 27.0026 44.6989C21.2354 44.6989 20.5496 44.6746 18.2735 44.572C16.1675 44.4748 15.0254 44.1238 14.264 43.8268C13.3267 43.4792 12.4782 42.9277 11.78 42.2122C11.0625 41.5145 10.5092 40.666 10.16 39.7282C9.8657 38.9695 9.512 37.8247 9.4175 35.7187C9.3149 33.4426 9.2933 32.7595 9.2933 26.9896C9.2933 21.2197 9.3149 20.542 9.4175 18.2659C9.5147 16.1599 9.8657 15.0151 10.1627 14.2537C10.5542 13.2466 11.024 12.5257 11.78 11.7697C12.536 11.0137 13.2542 10.5466 14.264 10.1551C15.0254 9.85809 16.1675 9.50709 18.2735 9.40989C20.2661 9.31809 21.0383 9.29109 25.064 9.28839V9.29379ZM38.5316 12.8794C38.1912 12.8794 37.8542 12.9464 37.5397 13.0767C37.2252 13.207 36.9395 13.3979 36.6988 13.6386C36.4581 13.8793 36.2672 14.165 36.1369 14.4795C36.0066 14.794 35.9396 15.131 35.9396 15.4714C35.9396 15.8118 36.0066 16.1488 36.1369 16.4633C36.2672 16.7778 36.4581 17.0635 36.6988 17.3042C36.9395 17.5449 37.2252 17.7358 37.5397 17.8661C37.8542 17.9963 38.1912 18.0634 38.5316 18.0634C39.219 18.0634 39.8783 17.7903 40.3644 17.3042C40.8505 16.8181 41.1236 16.1588 41.1236 15.4714C41.1236 14.7839 40.8505 14.1247 40.3644 13.6386C39.8783 13.1525 39.219 12.8794 38.5316 12.8794ZM27.0026 15.9088C25.5313 15.8858 24.0701 16.1558 22.7041 16.703C21.3382 17.2501 20.0947 18.0636 19.0461 19.0959C17.9975 20.1283 17.1648 21.3589 16.5964 22.7162C16.028 24.0735 15.7352 25.5303 15.7352 27.0017C15.7352 28.4732 16.028 29.93 16.5964 31.2873C17.1648 32.6446 17.9975 33.8752 19.0461 34.9075C20.0947 35.9399 21.3382 36.7533 22.7041 37.3005C24.0701 37.8477 25.5313 38.1176 27.0026 38.0947C29.9147 38.0493 32.6921 36.8606 34.7353 34.7852C36.7786 32.7098 37.9238 29.9142 37.9238 27.0017C37.9238 24.0893 36.7786 21.2937 34.7353 19.2183C32.6921 17.1429 29.9147 15.9542 27.0026 15.9088ZM27.0026 19.7995C27.9482 19.7995 28.8846 19.9857 29.7583 20.3476C30.6319 20.7095 31.4257 21.2399 32.0944 21.9086C32.7631 22.5773 33.2935 23.3711 33.6554 24.2447C34.0172 25.1184 34.2035 26.0548 34.2035 27.0004C34.2035 27.946 34.0172 28.8824 33.6554 29.7561C33.2935 30.6297 32.7631 31.4235 32.0944 32.0922C31.4257 32.7609 30.6319 33.2913 29.7583 33.6532C28.8846 34.015 27.9482 34.2013 27.0026 34.2013C25.0928 34.2013 23.2612 33.4426 21.9108 32.0922C20.5604 30.7418 19.8017 28.9102 19.8017 27.0004C19.8017 25.0906 20.5604 23.259 21.9108 21.9086C23.2612 20.5582 25.0928 19.7995 27.0026 19.7995Z" fill="#1E1E1E"></path></svg> 