<?xml version="1.0" encoding="UTF-8"?> <svg xmlns="http://www.w3.org/2000/svg" width="48" height="48" viewBox="0 0 48 48" fill="none"><rect width="48" height="48" rx="10" fill="#C67B17"></rect><path d="M34.8333 25.6667H25.6667V34.8333C25.6667 35.3196 25.4735 35.7859 25.1297 36.1297C24.7859 36.4735 24.3196 36.6667 23.8333 36.6667C23.3471 36.6667 22.8808 36.4735 22.537 36.1297C22.1932 35.7859 22 35.3196 22 34.8333V25.6667H12.8333C12.3471 25.6667 11.8808 25.4735 11.537 25.1297C11.1932 24.7859 11 24.3196 11 23.8333C11 23.3471 11.1932 22.8808 11.537 22.537C11.8808 22.1932 12.3471 22 12.8333 22H22V12.8333C22 12.3471 22.1932 11.8808 22.537 11.537C22.8808 11.1932 23.3471 11 23.8333 11C24.3196 11 24.7859 11.1932 25.1297 11.537C25.4735 11.8808 25.6667 12.3471 25.6667 12.8333V22H34.8333C35.3196 22 35.7859 22.1932 36.1297 22.537C36.4735 22.8808 36.6667 23.3471 36.6667 23.8333C36.6667 24.3196 36.4735 24.7859 36.1297 25.1297C35.7859 25.4735 35.3196 25.6667 34.8333 25.6667Z" fill="#FAFAFA"></path></svg> 